<mxfile host="app.diagrams.net" modified="2021-02-04T05:32:29.400Z" agent="5.0 (Macintosh; Intel Mac OS X 10_15_7) AppleWebKit/537.36 (KHTML, like Gecko) Chrome/88.0.4324.96 Safari/537.36" etag="5PwACnC1WG_a3lsbB1kL" version="14.2.9" type="github">
  <diagram id="C5RBs43oDa-KdzZeNtuy" name="Page-1">
    <mxGraphModel dx="2997" dy="992" grid="1" gridSize="10" guides="1" tooltips="1" connect="1" arrows="1" fold="1" page="1" pageScale="1" pageWidth="1169" pageHeight="1654" math="0" shadow="0">
      <root>
        <mxCell id="WIyWlLk6GJQsqaUBKTNV-0" />
        <mxCell id="WIyWlLk6GJQsqaUBKTNV-1" parent="WIyWlLk6GJQsqaUBKTNV-0" />
        <mxCell id="WIyWlLk6GJQsqaUBKTNV-2" value="" style="rounded=0;html=1;jettySize=auto;orthogonalLoop=1;fontSize=11;endArrow=block;endFill=0;endSize=8;strokeWidth=1;shadow=0;labelBackgroundColor=none;edgeStyle=orthogonalEdgeStyle;" parent="WIyWlLk6GJQsqaUBKTNV-1" source="WIyWlLk6GJQsqaUBKTNV-3" target="WIyWlLk6GJQsqaUBKTNV-6" edge="1">
          <mxGeometry relative="1" as="geometry" />
        </mxCell>
        <mxCell id="WIyWlLk6GJQsqaUBKTNV-3" value="存货查询" style="rounded=1;whiteSpace=wrap;html=1;fontSize=12;glass=0;strokeWidth=1;shadow=0;arcSize=50;" parent="WIyWlLk6GJQsqaUBKTNV-1" vertex="1">
          <mxGeometry x="360" y="200" width="120" height="40" as="geometry" />
        </mxCell>
        <mxCell id="WIyWlLk6GJQsqaUBKTNV-4" value="Yes" style="rounded=0;html=1;jettySize=auto;orthogonalLoop=1;fontSize=11;endArrow=block;endFill=0;endSize=8;strokeWidth=1;shadow=0;labelBackgroundColor=none;edgeStyle=orthogonalEdgeStyle;" parent="WIyWlLk6GJQsqaUBKTNV-1" source="WIyWlLk6GJQsqaUBKTNV-6" target="WIyWlLk6GJQsqaUBKTNV-10" edge="1">
          <mxGeometry y="20" relative="1" as="geometry">
            <mxPoint as="offset" />
          </mxGeometry>
        </mxCell>
        <mxCell id="TtRiqK_YNeNSmyJiiI_s-16" style="edgeStyle=orthogonalEdgeStyle;rounded=0;orthogonalLoop=1;jettySize=auto;html=1;exitX=1;exitY=0.5;exitDx=0;exitDy=0;entryX=0.5;entryY=0;entryDx=0;entryDy=0;" edge="1" parent="WIyWlLk6GJQsqaUBKTNV-1" source="WIyWlLk6GJQsqaUBKTNV-6" target="TtRiqK_YNeNSmyJiiI_s-27">
          <mxGeometry relative="1" as="geometry">
            <mxPoint x="550" y="560" as="targetPoint" />
            <Array as="points">
              <mxPoint x="470" y="340" />
              <mxPoint x="600" y="340" />
              <mxPoint x="600" y="430" />
              <mxPoint x="570" y="430" />
            </Array>
          </mxGeometry>
        </mxCell>
        <mxCell id="TtRiqK_YNeNSmyJiiI_s-20" value="&lt;br&gt;" style="edgeLabel;html=1;align=center;verticalAlign=middle;resizable=0;points=[];" vertex="1" connectable="0" parent="TtRiqK_YNeNSmyJiiI_s-16">
          <mxGeometry x="-0.15" y="1" relative="1" as="geometry">
            <mxPoint as="offset" />
          </mxGeometry>
        </mxCell>
        <mxCell id="TtRiqK_YNeNSmyJiiI_s-28" style="edgeStyle=orthogonalEdgeStyle;rounded=0;orthogonalLoop=1;jettySize=auto;html=1;exitX=1;exitY=0.5;exitDx=0;exitDy=0;" edge="1" parent="WIyWlLk6GJQsqaUBKTNV-1" source="WIyWlLk6GJQsqaUBKTNV-6" target="TtRiqK_YNeNSmyJiiI_s-25">
          <mxGeometry relative="1" as="geometry">
            <Array as="points">
              <mxPoint x="600" y="340" />
              <mxPoint x="600" y="430" />
              <mxPoint x="400" y="430" />
            </Array>
          </mxGeometry>
        </mxCell>
        <mxCell id="TtRiqK_YNeNSmyJiiI_s-30" style="edgeStyle=orthogonalEdgeStyle;rounded=0;orthogonalLoop=1;jettySize=auto;html=1;exitX=1;exitY=0.5;exitDx=0;exitDy=0;" edge="1" parent="WIyWlLk6GJQsqaUBKTNV-1" source="WIyWlLk6GJQsqaUBKTNV-6" target="TtRiqK_YNeNSmyJiiI_s-29">
          <mxGeometry relative="1" as="geometry">
            <Array as="points">
              <mxPoint x="470" y="340" />
              <mxPoint x="600" y="340" />
              <mxPoint x="600" y="430" />
              <mxPoint x="820" y="430" />
            </Array>
          </mxGeometry>
        </mxCell>
        <mxCell id="TtRiqK_YNeNSmyJiiI_s-32" style="edgeStyle=orthogonalEdgeStyle;rounded=0;orthogonalLoop=1;jettySize=auto;html=1;exitX=1;exitY=0.5;exitDx=0;exitDy=0;entryX=0.5;entryY=0;entryDx=0;entryDy=0;" edge="1" parent="WIyWlLk6GJQsqaUBKTNV-1" source="WIyWlLk6GJQsqaUBKTNV-6" target="TtRiqK_YNeNSmyJiiI_s-31">
          <mxGeometry relative="1" as="geometry">
            <Array as="points">
              <mxPoint x="470" y="340" />
              <mxPoint x="600" y="340" />
              <mxPoint x="600" y="430" />
              <mxPoint x="990" y="430" />
            </Array>
          </mxGeometry>
        </mxCell>
        <mxCell id="WIyWlLk6GJQsqaUBKTNV-6" value="查询所有存货" style="rhombus;whiteSpace=wrap;html=1;shadow=0;fontFamily=Helvetica;fontSize=12;align=center;strokeWidth=1;spacing=6;spacingTop=-4;" parent="WIyWlLk6GJQsqaUBKTNV-1" vertex="1">
          <mxGeometry x="370" y="302.5" width="100" height="80" as="geometry" />
        </mxCell>
        <mxCell id="TtRiqK_YNeNSmyJiiI_s-45" style="edgeStyle=orthogonalEdgeStyle;rounded=0;orthogonalLoop=1;jettySize=auto;html=1;exitX=0.5;exitY=1;exitDx=0;exitDy=0;entryX=0.5;entryY=0;entryDx=0;entryDy=0;" edge="1" parent="WIyWlLk6GJQsqaUBKTNV-1" source="TtRiqK_YNeNSmyJiiI_s-43" target="WIyWlLk6GJQsqaUBKTNV-12">
          <mxGeometry relative="1" as="geometry">
            <Array as="points">
              <mxPoint x="570" y="770" />
              <mxPoint x="430" y="770" />
            </Array>
          </mxGeometry>
        </mxCell>
        <mxCell id="TtRiqK_YNeNSmyJiiI_s-47" value="Yes" style="edgeLabel;html=1;align=center;verticalAlign=middle;resizable=0;points=[];" vertex="1" connectable="0" parent="TtRiqK_YNeNSmyJiiI_s-45">
          <mxGeometry x="-0.7919" y="-1" relative="1" as="geometry">
            <mxPoint as="offset" />
          </mxGeometry>
        </mxCell>
        <mxCell id="TtRiqK_YNeNSmyJiiI_s-51" style="edgeStyle=orthogonalEdgeStyle;rounded=0;orthogonalLoop=1;jettySize=auto;html=1;exitX=1;exitY=0.5;exitDx=0;exitDy=0;" edge="1" parent="WIyWlLk6GJQsqaUBKTNV-1" source="TtRiqK_YNeNSmyJiiI_s-43" target="TtRiqK_YNeNSmyJiiI_s-50">
          <mxGeometry relative="1" as="geometry" />
        </mxCell>
        <mxCell id="TtRiqK_YNeNSmyJiiI_s-52" value="No" style="edgeLabel;html=1;align=center;verticalAlign=middle;resizable=0;points=[];" vertex="1" connectable="0" parent="TtRiqK_YNeNSmyJiiI_s-51">
          <mxGeometry x="-0.6853" y="3" relative="1" as="geometry">
            <mxPoint as="offset" />
          </mxGeometry>
        </mxCell>
        <mxCell id="TtRiqK_YNeNSmyJiiI_s-43" value="可以获取分类&lt;br&gt;Code" style="rhombus;whiteSpace=wrap;html=1;shadow=0;fontFamily=Helvetica;fontSize=12;align=center;strokeWidth=1;spacing=6;spacingTop=-4;" vertex="1" parent="WIyWlLk6GJQsqaUBKTNV-1">
          <mxGeometry x="520" y="570" width="100" height="80" as="geometry" />
        </mxCell>
        <mxCell id="WIyWlLk6GJQsqaUBKTNV-9" value="Yes" style="edgeStyle=orthogonalEdgeStyle;rounded=0;html=1;jettySize=auto;orthogonalLoop=1;fontSize=11;endArrow=block;endFill=0;endSize=8;strokeWidth=1;shadow=0;labelBackgroundColor=none;" parent="WIyWlLk6GJQsqaUBKTNV-1" source="WIyWlLk6GJQsqaUBKTNV-10" target="WIyWlLk6GJQsqaUBKTNV-12" edge="1">
          <mxGeometry x="-0.4257" y="10" relative="1" as="geometry">
            <mxPoint as="offset" />
            <Array as="points">
              <mxPoint x="115" y="433" />
              <mxPoint x="250" y="433" />
              <mxPoint x="250" y="770" />
              <mxPoint x="430" y="770" />
            </Array>
          </mxGeometry>
        </mxCell>
        <mxCell id="TtRiqK_YNeNSmyJiiI_s-40" style="edgeStyle=orthogonalEdgeStyle;rounded=0;orthogonalLoop=1;jettySize=auto;html=1;exitX=0.5;exitY=1;exitDx=0;exitDy=0;" edge="1" parent="WIyWlLk6GJQsqaUBKTNV-1" source="WIyWlLk6GJQsqaUBKTNV-10" target="WIyWlLk6GJQsqaUBKTNV-11">
          <mxGeometry relative="1" as="geometry" />
        </mxCell>
        <mxCell id="TtRiqK_YNeNSmyJiiI_s-41" value="No" style="edgeLabel;html=1;align=center;verticalAlign=middle;resizable=0;points=[];" vertex="1" connectable="0" parent="TtRiqK_YNeNSmyJiiI_s-40">
          <mxGeometry x="-0.1481" y="-4" relative="1" as="geometry">
            <mxPoint as="offset" />
          </mxGeometry>
        </mxCell>
        <mxCell id="WIyWlLk6GJQsqaUBKTNV-10" value="只查询默认返回字段" style="rhombus;whiteSpace=wrap;html=1;shadow=0;fontFamily=Helvetica;fontSize=12;align=center;strokeWidth=1;spacing=6;spacingTop=-4;" parent="WIyWlLk6GJQsqaUBKTNV-1" vertex="1">
          <mxGeometry x="60" y="305" width="110" height="75" as="geometry" />
        </mxCell>
        <mxCell id="TtRiqK_YNeNSmyJiiI_s-6" style="edgeStyle=orthogonalEdgeStyle;rounded=0;orthogonalLoop=1;jettySize=auto;html=1;exitX=0.5;exitY=1;exitDx=0;exitDy=0;entryX=0.5;entryY=0;entryDx=0;entryDy=0;" edge="1" parent="WIyWlLk6GJQsqaUBKTNV-1" source="WIyWlLk6GJQsqaUBKTNV-11" target="WIyWlLk6GJQsqaUBKTNV-12">
          <mxGeometry relative="1" as="geometry">
            <Array as="points">
              <mxPoint x="115" y="770" />
              <mxPoint x="430" y="770" />
            </Array>
          </mxGeometry>
        </mxCell>
        <mxCell id="WIyWlLk6GJQsqaUBKTNV-11" value="设置查询条件的SelectFields 属性" style="rounded=1;whiteSpace=wrap;html=1;fontSize=12;glass=0;strokeWidth=1;shadow=0;" parent="WIyWlLk6GJQsqaUBKTNV-1" vertex="1">
          <mxGeometry x="55" y="560" width="120" height="40" as="geometry" />
        </mxCell>
        <mxCell id="TtRiqK_YNeNSmyJiiI_s-7" style="edgeStyle=orthogonalEdgeStyle;rounded=0;orthogonalLoop=1;jettySize=auto;html=1;exitX=0.5;exitY=1;exitDx=0;exitDy=0;" edge="1" parent="WIyWlLk6GJQsqaUBKTNV-1" source="WIyWlLk6GJQsqaUBKTNV-12" target="TtRiqK_YNeNSmyJiiI_s-5">
          <mxGeometry relative="1" as="geometry" />
        </mxCell>
        <mxCell id="WIyWlLk6GJQsqaUBKTNV-12" value="返回查询结果" style="rounded=1;whiteSpace=wrap;html=1;fontSize=12;glass=0;strokeWidth=1;shadow=0;" parent="WIyWlLk6GJQsqaUBKTNV-1" vertex="1">
          <mxGeometry x="370" y="860" width="120" height="40" as="geometry" />
        </mxCell>
        <mxCell id="TtRiqK_YNeNSmyJiiI_s-33" style="edgeStyle=orthogonalEdgeStyle;rounded=0;orthogonalLoop=1;jettySize=auto;html=1;exitX=0.5;exitY=1;exitDx=0;exitDy=0;" edge="1" parent="WIyWlLk6GJQsqaUBKTNV-1" source="TtRiqK_YNeNSmyJiiI_s-25" target="WIyWlLk6GJQsqaUBKTNV-12">
          <mxGeometry relative="1" as="geometry">
            <Array as="points">
              <mxPoint x="400" y="770" />
              <mxPoint x="430" y="770" />
            </Array>
          </mxGeometry>
        </mxCell>
        <mxCell id="TtRiqK_YNeNSmyJiiI_s-25" value="根据存货名称查询" style="rounded=1;whiteSpace=wrap;html=1;fontSize=12;glass=0;strokeWidth=1;shadow=0;" vertex="1" parent="WIyWlLk6GJQsqaUBKTNV-1">
          <mxGeometry x="340" y="550" width="120" height="40" as="geometry" />
        </mxCell>
        <mxCell id="TtRiqK_YNeNSmyJiiI_s-44" style="edgeStyle=orthogonalEdgeStyle;rounded=0;orthogonalLoop=1;jettySize=auto;html=1;exitX=0.5;exitY=1;exitDx=0;exitDy=0;" edge="1" parent="WIyWlLk6GJQsqaUBKTNV-1" source="TtRiqK_YNeNSmyJiiI_s-27" target="TtRiqK_YNeNSmyJiiI_s-43">
          <mxGeometry relative="1" as="geometry" />
        </mxCell>
        <mxCell id="TtRiqK_YNeNSmyJiiI_s-27" value="根据存货分类查询" style="rounded=1;whiteSpace=wrap;html=1;fontSize=12;glass=0;strokeWidth=1;shadow=0;" vertex="1" parent="WIyWlLk6GJQsqaUBKTNV-1">
          <mxGeometry x="510" y="500" width="120" height="40" as="geometry" />
        </mxCell>
        <mxCell id="TtRiqK_YNeNSmyJiiI_s-53" style="edgeStyle=orthogonalEdgeStyle;rounded=0;orthogonalLoop=1;jettySize=auto;html=1;exitX=0.5;exitY=1;exitDx=0;exitDy=0;entryX=0.5;entryY=0;entryDx=0;entryDy=0;" edge="1" parent="WIyWlLk6GJQsqaUBKTNV-1" source="TtRiqK_YNeNSmyJiiI_s-50" target="WIyWlLk6GJQsqaUBKTNV-12">
          <mxGeometry relative="1" as="geometry">
            <Array as="points">
              <mxPoint x="680" y="770" />
              <mxPoint x="430" y="770" />
            </Array>
          </mxGeometry>
        </mxCell>
        <mxCell id="TtRiqK_YNeNSmyJiiI_s-50" value="查询存货分类" style="rounded=1;whiteSpace=wrap;html=1;fontSize=12;glass=0;strokeWidth=1;shadow=0;" vertex="1" parent="WIyWlLk6GJQsqaUBKTNV-1">
          <mxGeometry x="620" y="670" width="120" height="40" as="geometry" />
        </mxCell>
        <mxCell id="TtRiqK_YNeNSmyJiiI_s-39" style="edgeStyle=orthogonalEdgeStyle;rounded=0;orthogonalLoop=1;jettySize=auto;html=1;exitX=0.5;exitY=1;exitDx=0;exitDy=0;entryX=0.5;entryY=0;entryDx=0;entryDy=0;" edge="1" parent="WIyWlLk6GJQsqaUBKTNV-1" source="TtRiqK_YNeNSmyJiiI_s-29" target="WIyWlLk6GJQsqaUBKTNV-12">
          <mxGeometry relative="1" as="geometry">
            <Array as="points">
              <mxPoint x="820" y="770" />
              <mxPoint x="430" y="770" />
            </Array>
          </mxGeometry>
        </mxCell>
        <mxCell id="TtRiqK_YNeNSmyJiiI_s-38" style="edgeStyle=orthogonalEdgeStyle;rounded=0;orthogonalLoop=1;jettySize=auto;html=1;exitX=0.5;exitY=1;exitDx=0;exitDy=0;entryX=0.5;entryY=0;entryDx=0;entryDy=0;" edge="1" parent="WIyWlLk6GJQsqaUBKTNV-1" source="TtRiqK_YNeNSmyJiiI_s-31" target="WIyWlLk6GJQsqaUBKTNV-12">
          <mxGeometry relative="1" as="geometry">
            <Array as="points">
              <mxPoint x="990" y="770" />
              <mxPoint x="430" y="770" />
            </Array>
          </mxGeometry>
        </mxCell>
        <mxCell id="TtRiqK_YNeNSmyJiiI_s-31" value="根据TS(增量)查询" style="rounded=1;whiteSpace=wrap;html=1;fontSize=12;glass=0;strokeWidth=1;shadow=0;" vertex="1" parent="WIyWlLk6GJQsqaUBKTNV-1">
          <mxGeometry x="930" y="550" width="120" height="40" as="geometry" />
        </mxCell>
        <mxCell id="TtRiqK_YNeNSmyJiiI_s-0" value="存货查询" style="text;strokeColor=none;fillColor=none;html=1;fontSize=24;fontStyle=1;verticalAlign=middle;align=center;" vertex="1" parent="WIyWlLk6GJQsqaUBKTNV-1">
          <mxGeometry x="350" y="70" width="100" height="40" as="geometry" />
        </mxCell>
        <mxCell id="TtRiqK_YNeNSmyJiiI_s-5" value="结束&lt;br&gt;" style="ellipse;shape=doubleEllipse;whiteSpace=wrap;html=1;aspect=fixed;" vertex="1" parent="WIyWlLk6GJQsqaUBKTNV-1">
          <mxGeometry x="410" y="930" width="40" height="40" as="geometry" />
        </mxCell>
        <mxCell id="TtRiqK_YNeNSmyJiiI_s-21" value="No&lt;br&gt;" style="text;html=1;align=center;verticalAlign=middle;resizable=0;points=[];autosize=1;" vertex="1" parent="WIyWlLk6GJQsqaUBKTNV-1">
          <mxGeometry x="490" y="320" width="30" height="20" as="geometry" />
        </mxCell>
        <mxCell id="TtRiqK_YNeNSmyJiiI_s-42" value="&lt;span&gt;存货编码、名称、&lt;/span&gt;&lt;br&gt;&lt;span&gt;规格型号、默认条码&lt;/span&gt;" style="shape=callout;whiteSpace=wrap;html=1;perimeter=calloutPerimeter;" vertex="1" parent="WIyWlLk6GJQsqaUBKTNV-1">
          <mxGeometry x="70" y="230" width="120" height="80" as="geometry" />
        </mxCell>
        <mxCell id="TtRiqK_YNeNSmyJiiI_s-54" value="" style="shape=curlyBracket;whiteSpace=wrap;html=1;rounded=1;size=0.5;rotation=-90;direction=north;" vertex="1" parent="WIyWlLk6GJQsqaUBKTNV-1">
          <mxGeometry x="-20" y="570" width="120" height="20" as="geometry" />
        </mxCell>
        <mxCell id="TtRiqK_YNeNSmyJiiI_s-57" value="Code&lt;br&gt;Name&lt;br&gt;InventoryClass&lt;br&gt;Code&lt;br&gt;InventoryClass&lt;br&gt;Name&lt;br&gt;Unit.Code&lt;br&gt;Unit.Name&quot;" style="text;html=1;align=center;verticalAlign=middle;resizable=0;points=[];autosize=1;" vertex="1" parent="WIyWlLk6GJQsqaUBKTNV-1">
          <mxGeometry x="-50" y="520" width="90" height="120" as="geometry" />
        </mxCell>
        <mxCell id="TtRiqK_YNeNSmyJiiI_s-29" value="根据建档日期查询" style="rounded=1;whiteSpace=wrap;html=1;fontSize=12;glass=0;strokeWidth=1;shadow=0;movable=0;resizable=0;rotatable=0;deletable=0;editable=0;connectable=0;" vertex="1" parent="WIyWlLk6GJQsqaUBKTNV-1">
          <mxGeometry x="760" y="550" width="120" height="40" as="geometry" />
        </mxCell>
        <mxCell id="TtRiqK_YNeNSmyJiiI_s-63" value="增量查询，第一次查询记录最大的TS，第二次查询就可以用这个TS作为条件，查询大于这个TS的存货" style="shape=callout;whiteSpace=wrap;html=1;perimeter=calloutPerimeter;rounded=1;shadow=0;glass=0;strokeWidth=1;size=20;position=0.25;position2=0.17;" vertex="1" parent="WIyWlLk6GJQsqaUBKTNV-1">
          <mxGeometry x="1010" y="420" width="120" height="120" as="geometry" />
        </mxCell>
      </root>
    </mxGraphModel>
  </diagram>
</mxfile>
